<svg width="720" height="540" viewBox="0 0 720 540" fill="none" xmlns="http://www.w3.org/2000/svg">
  <rect width="720" height="540" rx="36" fill="#F6F2EA"/>
  <rect x="44" y="44" width="632" height="452" rx="28" fill="#FFFDF8" stroke="#E8DFD0"/>
  <circle cx="187" cy="207" r="86" fill="#E6D1BF"/>
  <path d="M138 325C154 285 208 283 236 317C257 343 264 388 264 422H110C110 387 117 356 138 325Z" fill="#C2AE98"/>
  <circle cx="181" cy="196" r="44" fill="#C2AE98"/>
  <rect x="338" y="152" width="238" height="18" rx="9" fill="#B39C84"/>
  <rect x="338" y="188" width="202" height="14" rx="7" fill="#8E8A82"/>
  <rect x="338" y="234" width="274" height="12" rx="6" fill="#C5B7A3"/>
  <rect x="338" y="264" width="254" height="12" rx="6" fill="#D2C6B5"/>
  <rect x="338" y="294" width="220" height="12" rx="6" fill="#D2C6B5"/>
  <rect x="338" y="350" width="102" height="34" rx="17" fill="#EEDDCB"/>
  <rect x="456" y="350" width="120" height="34" rx="17" fill="#F1E7D9" stroke="#DDD0BF"/>
</svg>
