<svg width="560" height="320" viewBox="0 0 560 320" fill="none" xmlns="http://www.w3.org/2000/svg">
  <rect width="560" height="320" rx="28" fill="#F6F1E8"/>
  <rect x="34" y="38" width="492" height="244" rx="24" fill="#FFFDF9" stroke="#E6DAC9"/>
  <rect x="58" y="60" width="444" height="30" rx="15" fill="#B39C84"/>
  <circle cx="82" cy="75" r="5" fill="#F3C3B3"/>
  <circle cx="102" cy="75" r="5" fill="#F0D59E"/>
  <circle cx="122" cy="75" r="5" fill="#9ACA9D"/>
  <rect x="74" y="118" width="118" height="134" rx="18" fill="#C8B49F"/>
  <rect x="214" y="118" width="126" height="54" rx="16" fill="#F3ECE1" stroke="#DCCFBD"/>
  <rect x="358" y="118" width="116" height="54" rx="16" fill="#F3ECE1" stroke="#DCCFBD"/>
  <path d="M192 185H214" stroke="#D4A27F" stroke-width="8" stroke-linecap="round"/>
  <path d="M340 145H358" stroke="#D4A27F" stroke-width="8" stroke-linecap="round"/>
  <rect x="214" y="192" width="260" height="16" rx="8" fill="#B39C84"/>
  <rect x="214" y="224" width="214" height="12" rx="6" fill="#B6AEA1"/>
  <path d="M108 170L128 190L160 152" stroke="#D4A27F" stroke-width="8" stroke-linecap="round" stroke-linejoin="round"/>
</svg>
